<svg width="32" height="32" viewBox="0 0 32 32" fill="none" xmlns="http://www.w3.org/2000/svg">
<path d="M8.86917 8.89567C8.84926 4.27284 7.84364 0.164277 13.9138 0.0328322C23.0019 -0.163902 23.1428 0.259528 23.1157 8.89186C24.2279 8.88745 27.2853 8.81237 28.3038 8.95118C32.169 9.27174 32.0048 12.9297 31.9839 15.7865C30.3479 15.8033 27.3529 16.1282 26.2217 15.0646C25.1763 14.0817 25.5799 11.7213 24.6486 11.3548C23.9612 11.5063 24.0569 12.4045 24.0104 12.896C23.9253 13.797 24.0381 16.5044 22.4058 15.5949C21.85 15.2852 21.6415 14.4222 21.4871 13.8974C21.4037 13.5123 21.2339 12.8596 20.8106 12.7794C20.099 13.1763 20.2008 15.1066 19.2742 15.3873C17.2446 14.9253 18.7542 8.20121 16.8813 8.25914C15.7136 9.0653 16.5572 15.5666 14.8355 15.779C13.5563 15.3367 14.04 12.6221 13.1877 11.6222C12.2434 11.4539 12.4595 14.9994 11.1757 14.6695C10.0272 13.7605 10.9182 11.1003 9.66549 10.7866C8.39091 11.3127 9.01725 15.6518 7.24527 15.6024C6.48584 15.2457 6.48497 13.5313 5.66796 13.526C4.88316 13.6466 5.16796 14.573 4.59506 15.0593C3.41948 16.0572 1.48158 15.8044 0.0156893 15.7876L0.0113336 15.2163C0.00667484 14.4624 -0.0159434 13.6889 0.0198373 12.9368C0.255001 7.99383 5.3893 8.8871 8.86917 8.89567Z" fill="#3F8EF3"/>
<path d="M28.3036 8.95117C32.1688 9.27173 32.0047 12.9297 31.9838 15.7865C30.3478 15.8033 27.3527 16.1282 26.2216 15.0646C25.1762 14.0817 25.5798 11.7213 24.6485 11.3548C23.9611 11.5063 24.0568 12.4045 24.0103 12.896C23.9252 13.797 24.038 16.5044 22.4057 15.5949C21.8499 15.2852 21.6413 14.4222 21.4869 13.8974C22.7236 12.7434 23.1179 10.5937 23.1676 8.97299C24.8721 8.94156 26.5906 8.99758 28.3036 8.95117Z" fill="#69A4F3"/>
<path d="M9.21342 21.2669C9.55694 21.4885 9.43726 21.4777 9.80113 21.4767C10.7254 20.9554 10.286 18.0995 11.2007 17.5285C11.5161 17.5157 11.4055 17.5031 11.7085 17.6701C12.4212 18.6335 12.3203 20.0895 12.9672 20.6147C14.1174 20.654 13.3491 16.6088 15.0181 16.493C16.5382 17.3961 15.7547 23.0738 16.8179 23.9932C18.6982 24.3847 17.3322 17.445 19.207 16.8303C20.3233 17.0432 19.9714 18.95 20.659 19.4085C21.6883 19.2944 21.8196 15.612 23.3875 16.5637C24.2035 17.0589 23.74 19.9174 24.3216 20.7735C24.5682 20.9137 24.4607 20.8945 24.7512 20.836C25.6698 20.0423 25.2476 16.9989 26.6133 16.8343C28.2802 16.6334 30.2805 16.7378 31.9827 16.7496C31.9969 18.614 32.1961 20.4899 30.7727 21.9423C29.8808 22.8522 28.7084 23.0948 27.4779 23.0996L23.1171 23.09C23.1208 24.6829 23.2063 26.4446 23.0824 28.0867C22.6813 33.4063 16.6441 31.6361 13.0966 31.9657C12.0804 32.0602 10.7499 31.5242 10.0655 30.7911C8.42125 29.2833 8.84366 25.7215 8.88271 23.4504C8.88375 23.3793 8.88748 23.3084 8.89388 23.2377C9.10318 22.5856 8.73559 22.1045 9.21342 21.2669Z" fill="#69A4F3"/>
<path d="M0.0128435 16.7398C1.01045 16.7443 3.45079 16.567 4.39776 16.9479C4.79359 17.1592 5.11026 18.7499 5.58636 18.7424C6.36804 18.7301 6.53508 17.1206 7.33893 16.6476C8.46994 16.5328 8.92898 20.2997 9.21344 21.2671C8.73561 22.1048 9.1032 22.5858 8.89391 23.2379C8.56866 22.9229 5.17218 23.1423 4.47267 23.11C0.0662032 22.9059 -0.0189539 20.2424 0.0128435 16.7398Z" fill="#3F8EF3"/>
</svg>
