<svg width="20" height="20" viewBox="0 0 20 20" fill="none" xmlns="http://www.w3.org/2000/svg">
<path d="M15.1053 4H1.8947C0.848286 4 0 4.84829 0 5.8947V14.1053C0 15.1517 0.848286 16 1.8947 16H15.1053C16.1517 16 17 15.1517 17 14.1053V5.8947C17 4.84829 16.1517 4 15.1053 4Z" fill="white"/>
<path d="M10.1053 1H6.8947C5.84829 1 5 1.84829 5 2.8947V5.1053C5 6.15171 5.84829 7 6.8947 7H10.1053C11.1517 7 12 6.15171 12 5.1053V2.8947C12 1.84829 11.1517 1 10.1053 1Z" stroke="white" stroke-width="2"/>
<path d="M14 19C16.7614 19 19 16.7614 19 14C19 11.2386 16.7614 9 14 9C11.2386 9 9 11.2386 9 14C9 16.7614 11.2386 19 14 19Z" fill="white" stroke="#657987"/>
<path d="M12 14H16" stroke="#657987" stroke-linecap="square"/>
</svg>
